# xmcd CD database file
#
# Track frame offsets:
#	182
#	19910
#	36240
#	52875
#	67457
#	94842
#	107887
#	127537
#	143232
#	171300
#	195895
#	211230
#	227067
#
# Disc length: 3234 seconds
#
# Revision: 2
# Processed by: cddbd v1.5PL3 Copyright (c) Steve Scherf et al.
# Submitted via: CDex 1.51
#
DISCID=b30ca00d
DTITLE=Dirty Hands - XXX Hot Chili !!!
DYEAR=1993
DGENRE=Blues
TTITLE0=Judgement Day
TTITLE1=I Don't Care
TTITLE2=Down In New Orleans
TTITLE3=Drunk Woman
TTITLE4=Find Some Blues
TTITLE5=Ridin' With George
TTITLE6=My Queenie
TTITLE7=Stop On By
TTITLE8=4th Tequilla
TTITLE9=Stir Up Trouble
TTITLE10=My Baby She's Got It
TTITLE11=Which Way For Bogalusa ?
TTITLE12=XXX Hot Chili !!!
EXTD=YEAR: 1993
EXTT0=
EXTT1=
EXTT2=
EXTT3=
EXTT4=
EXTT5=
EXTT6=
EXTT7=
EXTT8=
EXTT9=
EXTT10=
EXTT11=
EXTT12=
PLAYORDER=
